Coordinates
version=1
nRows=20
nColumns=34
inDegrees=yes

Units are S.I. units (second, meters, Newtons, ...)
If the header above contains a line with 'inDegrees', this indicates whether rotational values are in degrees (yes) or radians (no).

endheader
time	pelvis_tilt	pelvis_list	pelvis_rotation	pelvis_tx	pelvis_ty	pelvis_tz	hip_flexion_r	hip_adduction_r	hip_rotation_r	knee_angle_r	ankle_angle_r	subtalar_angle_r	mtp_angle_r	hip_flexion_l	hip_adduction_l	hip_rotation_l	knee_angle_l	ankle_angle_l	subtalar_angle_l	mtp_angle_l	lumbar_extension	lumbar_bending	lumbar_rotation	arm_flex_r	arm_add_r	arm_rot_r	elbow_flex_r	pro_sup_r	arm_flex_l	arm_add_l	arm_rot_l	elbow_flex_l	pro_sup_l
      0.00000000	     -0.67772090	     -0.89809105	      0.04189706	     -0.52877007	      0.94250186	     -0.16975336	      1.84157862	     -0.37703738	     -3.92283276	      7.64884203	      1.91494790	    -13.68626665	      0.00000000	     -1.18824957	     -2.70820456	     -6.75360515	      0.78346577	     14.12603152	      3.97349985	      0.00000000	     -2.95471883	      1.36747235	     -9.07888911	      5.01040797	     -4.66375273	     11.86011488	     21.50017540	     82.23336627	     -6.71359814	     -5.11019602	     -2.03410170	     29.31481975	     80.17002187
      0.01666670	     -3.20079452	      0.53304719	     -0.18665369	     -0.52537149	      0.93677282	     -0.16934304	      4.40782743	     -1.50524648	     -3.08976298	      7.05060846	      5.36661777	    -10.61346844	      0.00000000	      2.20841474	     -0.78739613	     -7.27912457	      1.62735685	     14.02350733	      4.48936912	      0.00000000	      1.39727717	     -0.03764066	     -8.49187751	      3.26382307	     -4.56931985	     10.55940599	     21.68634499	     82.32367659	     -7.10004696	     -5.12797476	     -3.29208247	     27.93429925	     79.91475252
      0.03333330	     -3.72938200	      1.46341793	     -0.70237642	     -0.52475975	      0.93526070	     -0.16792670	      4.88833961	     -2.51496420	     -3.36043063	      6.46969701	      6.51308375	     -9.37633322	      0.00000000	      2.70712400	      0.16480443	     -8.74313458	      1.76395075	     13.39421271	      5.08122489	      0.00000000	      2.50575719	     -1.12362916	     -7.92098405	      2.66796200	     -4.47194288	     10.25798961	     22.13251241	     82.51798861	     -7.19892208	     -5.77307981	     -2.25412301	     27.65786422	     80.05668523
      0.05000000	     -3.14085245	      1.94447611	     -0.85118699	     -0.52627691	      0.93729999	     -0.16741298	      4.14623560	     -3.06251452	     -3.41499895	      5.97222227	      7.26163435	     -8.41651506	      0.00000000	      1.61390082	      0.81106750	     -8.29866268	      0.97343348	     12.64565833	      4.10324094	      0.00000000	      1.86667432	     -1.69455214	     -7.20948131	      2.33093601	     -4.56536693	     10.42542365	     22.61346648	     82.96088823	     -6.70601690	     -6.60383390	      1.29312956	     27.21883737	     80.50700507
      0.06666670	     -2.93853177	      2.16515768	     -0.97670331	     -0.52585883	      0.93813596	     -0.16702385	      3.86023372	     -3.23235712	     -3.20916244	      5.67706861	      7.59866752	     -8.38592081	      0.00000000	      1.09728631	      1.09874307	     -8.23416584	      0.39822962	     12.13549323	      4.14160733	      0.00000000	      1.80395011	     -1.86661622	     -6.57038760	      1.95498697	     -4.70271635	     10.71078805	     23.11835761	     83.57261385	     -5.93263713	     -7.20399642	      5.77280797	     26.20449393	     80.30900607
      0.08333330	     -2.90524314	      2.17772147	     -0.96674152	     -0.52630042	      0.94006394	     -0.16709935	      3.93105107	     -3.20283287	     -3.20053537	      5.64500677	      7.59871061	     -8.38257136	      0.00000000	      1.05888416	      1.12124980	     -8.22206118	      0.41412332	     12.13305394	      4.14622124	      0.00000000	      1.80388885	     -1.86486044	     -6.57279227	      1.95452801	     -4.69999728	     10.71099777	     23.11785964	     83.57286958	     -5.92376256	     -7.20356246	      5.77344412	     26.20629344	     80.30780684
      0.10000000	     -2.82148839	      2.18753308	     -1.01780317	     -0.52751042	      0.94042634	     -0.16687618	      3.97896467	     -3.17948559	     -2.79124226	      5.65239083	      7.49922066	     -8.24752255	      0.00000000	      0.96337486	      1.13404957	     -7.73677479	      0.35899206	     12.03021051	      4.28516114	      0.00000000	      1.51748017	     -1.85253111	     -6.55021919	      2.13342580	     -4.59121865	     10.72470421	     23.13221722	     83.58268491	     -5.48686672	     -7.20344541	      5.78665380	     26.25507863	     80.26143680
      0.11666670	     -1.86073474	      2.14406531	     -1.11294021	     -0.52748304	      0.94265022	     -0.16673037	      2.84623828	     -3.11249332	     -2.58992349	      5.34214087	      7.00578710	     -8.57436904	      0.00000000	     -0.17809396	      1.12610342	     -7.18528027	      0.14640154	     11.70994658	      3.58092307	      0.00000000	      0.05232430	     -1.87428941	     -6.06872058	      2.42518685	     -4.64598589	     10.72980724	     22.87680835	     83.63026261	     -4.53384725	     -7.16368399	      5.93112202	     25.80821798	     79.91786924
      0.13333330	     -1.84392285	      2.14165891	     -1.18399921	     -0.52716609	      0.94236381	     -0.16649644	      2.86632170	     -3.10140169	     -2.55737675	      5.32826738	      6.98134420	     -8.56446722	      0.00000000	     -0.21049408	      1.12009250	     -7.11205538	      0.18466970	     11.67664472	      3.61013726	      0.00000000	      0.01956952	     -1.86666491	     -6.10454075	      2.40433365	     -4.63351189	     10.73063942	     22.87422094	     83.63147897	     -4.49112716	     -7.18022770	      5.93582999	     25.79813163	     79.90551539
      0.15000000	     -1.83512214	      2.15144993	     -1.19858277	     -0.52705643	      0.94332726	     -0.16659422	      2.84123069	     -3.10084834	     -2.55137953	      5.33530181	      6.97501388	     -8.56169737	      0.00000000	     -0.18104794	      1.11143366	     -7.10060329	      0.17208849	     11.66896651	      3.61355357	      0.00000000	      0.01269764	     -1.86777608	     -6.10575752	      2.40467171	     -4.63089561	     10.73094674	     22.87482343	     83.63171105	     -4.48663346	     -7.18264419	      5.93621725	     25.79563785	     79.90377521
      0.16666670	     -1.47657407	      2.22606122	     -1.15560133	     -0.52633982	      0.94436866	     -0.16627561	      2.16877364	     -3.13840420	     -2.26724575	      4.78700320	      6.42341959	     -8.46749141	      0.00000000	     -0.62486335	      1.18322304	     -6.64825446	      0.00000000	     10.99688802	      3.44325127	      0.00000000	     -0.58902206	     -2.07676345	     -6.13684496	      2.46410799	     -4.51084356	     10.74916810	     22.91033893	     83.65699191	     -4.08020805	     -7.31045356	      5.98901323	     25.51456629	     79.72242282
      0.18333330	     -1.44491159	      2.23061733	     -1.16498775	     -0.52737595	      0.94355673	     -0.16644817	      2.16047774	     -3.14281513	     -2.27112824	      4.78160958	      6.42373241	     -8.47100747	      0.00000000	     -0.60802027	      1.18577488	     -6.64572786	      0.00000000	     10.99370131	      3.44058933	      0.00000000	     -0.58932023	     -2.07410950	     -6.13470165	      2.46235873	     -4.51010473	     10.74939979	     22.91037418	     83.65722069	     -4.08191451	     -7.31142144	      5.98969664	     25.51138692	     79.72092857
      0.20000000	     -0.66770591	      2.39310392	     -1.08171674	     -0.52751727	      0.94223243	     -0.16654227	      1.18092446	     -3.34566500	     -2.12916190	      4.49536736	      6.23646060	     -8.86761520	      0.00000000	     -1.44714464	      1.39525891	     -6.09621891	      0.00000000	     10.37554606	      2.48193772	      0.00000000	     -1.67525634	     -2.28885841	     -6.00504981	      2.59597733	     -4.50969734	     10.74060898	     23.09656406	     83.71273332	     -3.48165621	     -7.40791213	      6.22060182	     25.08430599	     79.33684827
      0.21666670	     -0.63765557	      2.47327289	     -1.01723016	     -0.52603809	      0.94391134	     -0.16663633	      1.07583799	     -3.44583403	     -1.94864924	      4.49030984	      6.30034798	     -8.82691342	      0.00000000	     -1.53986153	      1.48993784	     -6.00058808	      0.00000000	     10.29983690	      2.50033806	      0.00000000	     -1.60993948	     -2.36351793	     -6.04894947	      2.46545525	     -4.49382360	     10.74065956	     23.08798659	     83.71874795	     -3.48490333	     -7.42215005	      6.25628427	     25.05520478	     79.29587408
      0.23333330	     -0.64225944	      2.47464416	     -0.99825170	     -0.52655006	      0.94251119	     -0.16650443	      1.07789840	     -3.45696520	     -1.93467846	      4.48318665	      6.30925189	     -8.82555524	      0.00000000	     -1.56756803	      1.50029448	     -5.99628884	      0.00000000	     10.29817751	      2.49868398	      0.00000000	     -1.60747426	     -2.36893149	     -6.04507424	      2.46521017	     -4.49385908	     10.74029509	     23.09030045	     83.71916221	     -3.48719635	     -7.42710187	      6.25813578	     25.05237930	     79.29304645
      0.25000000	     -0.64315010	      2.51705485	     -0.91215016	     -0.52506387	      0.94454538	     -0.16615599	      0.96003376	     -3.49424533	     -1.78587581	      4.50765045	      6.35186685	     -8.78911749	      0.00000000	     -1.67767343	      1.52824317	     -5.92246867	      0.00000000	     10.25640106	      2.51745515	      0.00000000	     -1.53224849	     -2.41266226	     -6.03892211	      2.42504226	     -4.49750991	     10.73925832	     23.09175562	     83.72179429	     -3.50550655	     -7.46587099	      6.26676341	     25.03456512	     79.27751677
      0.26666670	     -0.55314486	      2.59443410	     -0.92030480	     -0.52593016	      0.94244383	     -0.16653190	      0.75531689	     -3.57830390	     -1.45457295	      4.34705110	      6.64314380	     -8.79285624	      0.00000000	     -1.81394264	      1.64455007	     -5.70765227	      0.00000000	     10.31592852	      2.50049868	      0.00000000	     -1.53383689	     -2.53336274	     -6.03519248	      2.31334979	     -4.50481029	     10.73493717	     23.09578149	     83.73118920	     -3.51176189	     -7.54508744	      6.30900609	     24.98716796	     79.22350976
      0.28333330	     -0.45775989	      2.54547740	     -0.92297274	     -0.52657916	      0.94640844	     -0.16633737	      0.54304657	     -3.51224535	     -1.22509338	      3.94604925	      6.71937829	     -8.75830654	      0.00000000	     -1.96051473	      1.57819941	     -5.57442232	      0.00000000	     10.28024846	      2.46437548	      0.00000000	     -1.64294845	     -2.50117221	     -5.98190089	      2.31270692	     -4.50664400	     10.72027489	     23.11494238	     83.74854909	     -3.38064475	     -7.55103489	      6.40223124	     24.95877347	     79.12173388
      0.30000000	     -0.44896514	      2.53700046	     -0.90865218	     -0.52583573	      0.94670623	     -0.16607531	      0.58112216	     -3.52214450	     -1.22252388	      3.91879008	      6.71823296	     -8.75702236	      0.00000000	     -1.99584605	      1.56909168	     -5.57118440	      0.00598056	     10.27734116	      2.46551690	      0.00000000	     -1.64383660	     -2.49969474	     -5.97720934	      2.31771550	     -4.50583145	     10.71999716	     23.11626217	     83.74874933	     -3.38076758	     -7.55325808	      6.40295577	     24.95758135	     79.12041780
      0.31666670	     -0.42168830	      2.52476130	     -0.92893947	     -0.52754588	      0.94102446	     -0.16695852	      0.55137341	     -3.51283227	     -1.22315428	      3.91783661	      6.71857138	     -8.75728112	      0.00000000	     -1.97615923	      1.58505588	     -5.56673759	      0.00000000	     10.27669391	      2.46658081	      0.00000000	     -1.64166568	     -2.49941240	     -5.97435624	      2.31659486	     -4.50460671	     10.72001806	     23.11519288	     83.74898880	     -3.38056231	     -7.55777503	      6.40333621	     24.95630500	     79.11890663
